<mxfile host="app.diagrams.net" modified="2024-06-03T14:17:05.307Z" agent="Mozilla/5.0 (Macintosh; Intel Mac OS X 10_15_7) AppleWebKit/537.36 (KHTML, like Gecko) Chrome/124.0.0.0 Safari/537.36" version="24.4.13" etag="DMK8dzy_QOKke9fWh6hI" type="github">
  <diagram name="ページ1" id="qoxaHDS8WYLYQEHreisf">
    <mxGraphModel>
      <root>
        <mxCell id="0" />
        <mxCell id="1" parent="0" />
      </root>
    </mxGraphModel>
  </diagram>
</mxfile>
